<?xml version="1.0" encoding="iso-8859-1"?>
<!-- Generator: Adobe Illustrator 19.0.0, SVG Export Plug-In . SVG Version: 6.00 Build 0)  -->
<svg version="1.1" id="Layer_1" xmlns="http://www.w3.org/2000/svg" xmlns:xlink="http://www.w3.org/1999/xlink" x="0px" y="0px"
	 viewBox="0 0 512 512" style="enable-background:new 0 0 512 512;" xml:space="preserve">
<g transform="translate(1 1)">
	<g>
		<g>
			<path d="M485.4-1H24.6c-5.12,0-8.533,3.413-8.533,8.533v494.933c0,5.12,3.413,8.533,8.533,8.533h51.2h153.6H383h102.4
				c5.12,0,8.533-3.413,8.533-8.533V7.533C493.933,2.413,490.52-1,485.4-1z M220.867,493.933H84.333V118.467h136.533V493.933z
				 M237.933,493.933V118.467h136.533v375.467H237.933z M476.867,493.933h-85.333v-384c0-5.12-3.413-8.533-8.533-8.533H229.4H75.8
				c-5.12,0-8.533,3.413-8.533,8.533v384H33.133V16.067h443.733V493.933z"/>
			<path d="M186.733,84.333h85.333c14.507,0,25.6-11.093,25.6-25.6s-11.093-25.6-25.6-25.6h-85.333c-14.507,0-25.6,11.093-25.6,25.6
				S172.227,84.333,186.733,84.333z M186.733,50.2h85.333c5.12,0,8.533,3.413,8.533,8.533s-3.413,8.533-8.533,8.533h-85.333
				c-5.12,0-8.533-3.413-8.533-8.533S181.613,50.2,186.733,50.2z"/>
			<path d="M423.107,286.573L434.2,275.48l11.093,11.093c1.707,1.707,3.413,2.56,5.973,2.56s4.267-0.853,5.973-2.56
				c3.413-3.413,3.413-8.533,0-11.947l-17.067-17.067c-3.413-3.413-8.533-3.413-11.947,0l-17.067,17.067
				c-3.413,3.413-3.413,8.533,0,11.947C414.573,289.987,419.693,289.987,423.107,286.573z"/>
			<path d="M428.227,354.84c1.707,1.707,3.413,2.56,5.973,2.56s4.267-0.853,5.973-2.56l17.067-17.067
				c3.413-3.413,3.413-8.533,0-11.947c-3.413-3.413-8.533-3.413-11.947,0L434.2,336.92l-11.093-11.093
				c-3.413-3.413-8.533-3.413-11.947,0c-3.413,3.413-3.413,8.533,0,11.947L428.227,354.84z"/>
		</g>
	</g>
</g>
<g>
</g>
<g>
</g>
<g>
</g>
<g>
</g>
<g>
</g>
<g>
</g>
<g>
</g>
<g>
</g>
<g>
</g>
<g>
</g>
<g>
</g>
<g>
</g>
<g>
</g>
<g>
</g>
<g>
</g>
</svg>
