<svg id="Layer_5" enable-background="new 0 0 64 64" height="512" viewBox="0 0 64 64" width="512" xmlns="http://www.w3.org/2000/svg"><path d="m40.024 25.558 7.495-6.558h15.481v-18h-18v10.194l-4.854 4.413c-.711.645-1.541 1.118-2.435 1.425.809-1.141 1.289-2.53 1.289-4.032 0-3.859-3.141-7-7-7s-7 3.141-7 7c0 1.502.48 2.891 1.288 4.033-.893-.307-1.723-.78-2.434-1.425l-.854-.777v-13.831h-22v18h15.481l7.495 6.558c.651.569 1.024 1.392 1.024 2.257v16.185h-2.184c.112-.314.184-.648.184-1 0-1.654-1.346-3-3-3h-4.197l-.764-3.438c-.415-1.868-1.536-3.395-3.032-4.379 1.787-1.04 2.993-2.971 2.993-5.183 0-3.309-2.691-6-6-6s-6 2.691-6 6c0 1.863.854 3.531 2.19 4.632-2.466 1.115-4.19 3.593-4.19 6.472v5.896c0 1.958.81 3.728 2.111 5h-.111c-1.103 0-2 .897-2 2v2c0 1.103.897 2 2 2h2v6h-2v2h58v-2h-2v-6h2c1.103 0 2-.897 2-2v-2c0-1.103-.897-2-2-2h-.111c1.301-1.272 2.111-3.042 2.111-5v-5.896c0-2.878-1.724-5.357-4.19-6.472 1.336-1.101 2.19-2.769 2.19-4.632 0-3.309-2.691-6-6-6s-6 2.691-6 6c0 2.212 1.206 4.143 2.993 5.184-1.496.984-2.616 2.511-3.032 4.379l-.763 3.437h-4.198c-1.654 0-3 1.346-3 3 0 .352.072.686.184 1h-2.184v-16.185c0-.865.373-1.688 1.024-2.257zm6.976-22.558h14v14h-11.195l3.915-3.426c.813-.712 1.28-1.741 1.28-2.822 0-2.068-1.684-3.752-3.752-3.752h-.185c-.936 0-1.831.347-2.523.976l-1.54 1.4zm-14.036 24.622-.964.964-.964-.964.66-7.637c.101.004.201.015.304.015.102 0 .202-.011.303-.015zm-.964-19.622c2.757 0 5 2.243 5 5 0 2.298-1.567 4.219-3.682 4.801l-1.318.189-1.318-.188c-2.115-.583-3.682-2.504-3.682-4.802 0-2.757 2.243-5 5-5zm-29 9v-14h18v10.012l-5.54-5.037c-.692-.628-1.588-.975-2.523-.975h-.186c-2.068 0-3.751 1.684-3.751 3.752 0 1.081.467 2.11 1.281 2.823l3.914 3.425zm41 29h1.105c-.837.82-1.466 1.849-1.81 3h-22.591c-.344-1.151-.972-2.18-1.81-3h1.106zm-23 13.5v-8.5h8v10h-8.351c.218-.456.351-.961.351-1.5zm10-8.5h2v10h-2zm4 0h8v8.5c0 .539.133 1.044.351 1.5h-8.351zm-26-28c2.206 0 4 1.794 4 4s-1.794 4-4 4-4-1.794-4-4 1.794-4 4-4zm-6 21v-5.896c0-2.815 2.289-5.104 5.104-5.104 2.41 0 4.459 1.644 4.982 3.996l.764 3.438c.205.921 1.007 1.566 1.952 1.566h4.198c.552 0 1 .448 1 1s-.448 1-1 1h-3-4.438c-.46 0-.858-.312-.971-.757l-1.621-6.485-1.94.484 1.621 6.486c.334 1.337 1.532 2.272 2.911 2.272h1.438c2.757 0 5 2.243 5 5v8.5c0 .827-.673 1.5-1.5 1.5s-1.5-.673-1.5-1.5v-4.5-2-1c0-1.654-1.346-3-3-3h-5c-2.757 0-5-2.243-5-5zm11 11v4.5c0 .539.133 1.044.351 1.5h-3.351v-6zm-11-4h5 5c.552 0 1 .448 1 1v1h-11zm4 4h2v6h-2zm43 0h3v6h-3.351c.218-.456.351-.961.351-1.5zm7 6h-2v-6h2zm4-10v2h-11v-1c0-.552.448-1 1-1h5zm-6-28c2.206 0 4 1.794 4 4s-1.794 4-4 4-4-1.794-4-4 1.794-4 4-4zm-12 20c0-.552.448-1 1-1h4.198c.944 0 1.747-.645 1.952-1.566l.764-3.438c.524-2.352 2.572-3.996 4.982-3.996 2.815 0 5.104 2.289 5.104 5.104v5.896c0 2.757-2.243 5-5 5h-5c-1.654 0-3 1.346-3 3v1 2 4.5c0 .827-.673 1.5-1.5 1.5s-1.5-.673-1.5-1.5v-8.5c0-2.757 2.243-5 5-5h1.438c1.379 0 2.576-.935 2.91-2.272l1.621-6.485-1.939-.484-1.621 6.484c-.112.445-.511.757-.971.757h-5.438-2c-.552 0-1-.448-1-1zm-10 1v-7h-2v7h-4v-16.185c0-1.441-.622-2.813-1.708-3.764l-13.693-11.981c-.381-.333-.599-.813-.599-1.318 0-.966.785-1.752 1.751-1.752h.186c.437 0 .854.162 1.178.456l8.396 7.632c1.339 1.216 2.992 1.994 4.78 2.25l2.425.346-.751 8.694 3.035 3.036 3.036-3.036-.752-8.694 2.426-.346c1.788-.256 3.441-1.034 4.781-2.25l8.395-7.632c.323-.294.741-.456 1.177-.456h.185c.966 0 1.752.786 1.752 1.752 0 .505-.218.985-.598 1.317l-13.694 11.983c-1.086.95-1.708 2.322-1.708 3.763v16.185z"/><path d="m55 13h4v2h-4z"/><path d="m57 9h2v2h-2z"/><path d="m57 5h2v2h-2z"/></svg>