<svg height="512pt" viewBox="-43 0 512 512.00002" width="512pt" xmlns="http://www.w3.org/2000/svg"><path d="m384 0h-341.332031c-23.554688.0273438-42.6406252 19.113281-42.667969 42.667969v409.597656c0 14.140625 11.460938 25.601563 25.601562 25.601563v25.597656c0 4.714844 3.820313 8.535156 8.53125 8.535156h358.402344c4.710938 0 8.53125-3.820312 8.53125-8.535156v-25.597656c14.136719 0 25.601563-11.460938 25.601563-25.601563v-409.597656c-.03125-23.554688-19.113281-42.6406252-42.667969-42.667969zm-341.332031 17.066406h341.332031c14.136719 0 25.601562 11.460938 25.601562 25.601563v59.734375h-392.535156v-59.734375c0-14.140625 11.460938-25.601563 25.601563-25.601563zm341.332031 477.867188h-341.332031v-17.066406h341.332031zm17.066406-34.132813h-375.464844c-4.714843 0-8.535156-3.820312-8.535156-8.535156v-332.800781h392.535156v332.800781c0 4.714844-3.820312 8.535156-8.535156 8.535156zm0 0"/><path d="m42.667969 85.332031h102.398437c4.714844 0 8.535156-3.820312 8.535156-8.53125v-34.132812c0-4.714844-3.820312-8.535157-8.535156-8.535157h-102.398437c-4.714844 0-8.535157 3.820313-8.535157 8.535157v34.132812c0 4.710938 3.820313 8.53125 8.535157 8.53125zm8.53125-34.132812h85.335937v17.066406h-85.335937zm0 0"/><path d="m196.265625 85.332031c14.140625 0 25.601563-11.460937 25.601563-25.597656 0-14.140625-11.460938-25.601563-25.601563-25.601563-14.136719 0-25.597656 11.460938-25.597656 25.601563 0 14.136719 11.460937 25.597656 25.597656 25.597656zm0-34.132812c4.714844 0 8.535156 3.820312 8.535156 8.535156 0 4.710937-3.820312 8.53125-8.535156 8.53125-4.710937 0-8.53125-3.820313-8.53125-8.53125 0-4.714844 3.820313-8.535156 8.53125-8.535156zm0 0"/><path d="m264.53125 85.332031c14.140625 0 25.601562-11.460937 25.601562-25.597656 0-14.140625-11.460937-25.601563-25.601562-25.601563-14.136719 0-25.597656 11.460938-25.597656 25.601563 0 14.136719 11.460937 25.597656 25.597656 25.597656zm0-34.132812c4.714844 0 8.535156 3.820312 8.535156 8.535156 0 4.710937-3.820312 8.53125-8.535156 8.53125-4.710938 0-8.53125-3.820313-8.53125-8.53125 0-4.714844 3.820312-8.535156 8.53125-8.535156zm0 0"/><path d="m315.734375 68.265625h17.066406c4.710938 0 8.53125-3.820313 8.53125-8.53125 0-4.714844-3.820312-8.535156-8.53125-8.535156h-17.066406c-4.714844 0-8.535156 3.820312-8.535156 8.535156 0 4.710937 3.820312 8.53125 8.535156 8.53125zm0 0"/><path d="m366.933594 68.265625h17.066406c4.714844 0 8.535156-3.820313 8.535156-8.53125 0-4.714844-3.820312-8.535156-8.535156-8.535156h-17.066406c-4.714844 0-8.535156 3.820312-8.535156 8.535156 0 4.710937 3.820312 8.53125 8.535156 8.53125zm0 0"/><path d="m213.332031 153.601562c-75.402343 0-136.53125 61.125-136.53125 136.53125s61.128907 136.535157 136.53125 136.535157c75.40625 0 136.535157-61.128907 136.535157-136.535157-.089844-75.367187-61.164063-136.441406-136.535157-136.53125zm0 256c-65.976562 0-119.464843-53.488281-119.464843-119.46875 0-65.980468 53.488281-119.464843 119.464843-119.464843 65.980469 0 119.46875 53.484375 119.46875 119.464843-.070312 65.949219-53.515625 119.398438-119.46875 119.46875zm0 0"/><path d="m213.332031 179.199219c-61.203125-.058594-110.871093 49.507812-110.933593 110.710937-.011719 14.503906 2.820312 28.871094 8.339843 42.285156.050781.171876 0 .347657.066407.519532.070312.171875.230468.332031.316406.53125 23.765625 56.417968 88.769531 82.886718 145.1875 59.121094 31.570312-13.300782 55.214844-40.449219 64.058594-73.542969.046874-.140625.082031-.285157.109374-.429688 15.847657-58.9375-19.085937-119.5625-78.027343-135.40625-9.492188-2.550781-19.285157-3.828125-29.117188-3.789062zm0 17.066406c51.71875-.121094 93.746094 41.707031 93.867188 93.421875.015625 6.984375-.746094 13.945312-2.277344 20.753906-4.449219 1.472656-8.816406 3.183594-13.082031 5.121094-11.070313 5.746094-23.367188 8.730469-35.839844 8.703125-10.621094.285156-21.113281-2.375-30.320312-7.679687-11.585938-6.449219-24.6875-9.6875-37.945313-9.386719-21.675781.882812-43.109375 4.90625-63.625 11.945312-16.085937-49.21875 10.773437-102.15625 59.992187-118.238281 9.4375-3.085938 19.304688-4.652344 29.230469-4.640625zm0 187.734375c-34.398437-.023438-66.035156-18.851562-82.464843-49.074219 18.351562-6.246093 37.5-9.835937 56.867187-10.660156 10.621094-.28125 21.113281 2.375 30.316406 7.679687 11.589844 6.449219 24.691407 9.691407 37.949219 9.386719 14.332031.078125 28.484375-3.191406 41.328125-9.546875-15.816406 31.9375-48.355469 52.167969-83.996094 52.214844zm0 0"/></svg>