<?xml version="1.0" encoding="iso-8859-1"?>
<!-- Generator: Adobe Illustrator 17.1.0, SVG Export Plug-In . SVG Version: 6.00 Build 0)  -->
<!DOCTYPE svg PUBLIC "-//W3C//DTD SVG 1.1//EN" "http://www.w3.org/Graphics/SVG/1.1/DTD/svg11.dtd">
<svg version="1.1" id="Capa_1" xmlns="http://www.w3.org/2000/svg" xmlns:xlink="http://www.w3.org/1999/xlink" x="0px" y="0px"
	 viewBox="0 0 296.154 296.154" style="enable-background:new 0 0 296.154 296.154;" xml:space="preserve">
<g>
	<path d="M293.811,102.727c-38.927-38.926-90.683-60.365-145.734-60.365c-55.051,0-106.807,21.439-145.733,60.365
		c-3.124,3.125-3.124,8.189,0,11.314c3.125,3.123,8.19,3.125,11.315,0c35.904-35.904,83.642-55.68,134.419-55.68
		c50.777,0,98.516,19.775,134.42,55.68c1.563,1.563,3.609,2.344,5.657,2.344c2.047,0,4.095-0.781,5.657-2.344
		C296.935,110.917,296.935,105.852,293.811,102.727z"/>
	<path d="M148.077,86.829c-43.174,0-83.764,16.813-114.292,47.34c-3.124,3.125-3.124,8.191,0,11.314
		c1.563,1.563,3.61,2.344,5.657,2.344c2.048,0,4.095-0.781,5.657-2.344c27.506-27.506,64.077-42.654,102.978-42.654
		c38.899,0,75.471,15.148,102.977,42.654c3.125,3.123,8.189,3.123,11.314,0c3.124-3.125,3.124-8.189,0-11.314
		C231.84,103.641,191.25,86.829,148.077,86.829z"/>
	<path d="M148.076,130.407c-31.533,0-61.18,12.281-83.478,34.578c-3.124,3.125-3.124,8.191,0,11.314
		c3.125,3.123,8.189,3.123,11.314,0c19.275-19.275,44.903-29.893,72.163-29.893s52.888,10.617,72.163,29.893
		c1.563,1.563,3.609,2.344,5.657,2.344c2.047,0,4.095-0.781,5.656-2.344c3.125-3.123,3.125-8.189,0.001-11.313
		C209.256,142.688,179.611,130.407,148.076,130.407z"/>
	<path d="M148.076,174.428c-19.774,0-38.365,7.701-52.349,21.686c-3.124,3.123-3.124,8.189,0.001,11.313
		c3.123,3.123,8.188,3.125,11.313,0c10.961-10.961,25.534-16.998,41.034-16.998c15.501,0,30.074,6.037,41.035,16.998
		c1.563,1.563,3.609,2.344,5.657,2.344c2.047,0,4.095-0.781,5.656-2.344c3.125-3.123,3.125-8.189,0.001-11.313
		C186.443,182.13,167.852,174.428,148.076,174.428z"/>
	<path d="M148.077,221.79c-4.096,0-8.191,1.563-11.315,4.686c-6.248,6.248-6.248,16.381,0,22.627
		c3.124,3.125,7.22,4.689,11.315,4.689c4.095,0,8.19-1.564,11.314-4.689c6.248-6.246,6.248-16.379,0-22.627
		C156.268,223.352,152.172,221.79,148.077,221.79z"/>
</g>
<g>
</g>
<g>
</g>
<g>
</g>
<g>
</g>
<g>
</g>
<g>
</g>
<g>
</g>
<g>
</g>
<g>
</g>
<g>
</g>
<g>
</g>
<g>
</g>
<g>
</g>
<g>
</g>
<g>
</g>
</svg>
